<svg width="237" height="713" viewBox="0 0 237 713" fill="none" xmlns="http://www.w3.org/2000/svg">
<path d="M233.707 649.25C227.707 672.25 208.207 712.75 118.707 712.75C96.2072 712.75 60.7072 708.75 30.7072 692.75C0.707159 676.75 -0.792841 647.25 0.207159 625.75C1.20716 604.25 18.2072 568.25 24.2072 555.25C30.2072 542.25 34.7072 526.75 34.7072 508.75C34.7072 490.75 23.2072 475.25 17.7072 460.25C12.2072 445.25 10.7072 428.75 11.7072 414.25C12.7072 399.75 20.7072 388.25 28.2072 382.75C35.7072 377.25 44.2072 378.25 48.7072 382.75C53.2072 387.25 57.7072 398.25 59.2072 409.25C60.7072 420.25 67.2072 432.25 77.2072 428.75C87.2072 425.25 90.5682 418.564 95.2072 415.25C102.207 410.25 113.207 411.25 125.207 412.75C135.813 414.076 140.207 417.75 140.207 436.75C140.207 455.75 152.207 461.75 161.207 461.75C170.207 461.75 176.707 454.75 180.207 448.75C183.707 442.75 184.207 433.75 186.207 427.75C188.207 421.75 191.707 418.25 196.707 417.75C201.707 417.25 208.207 417.75 215.707 439.25C223.207 460.75 217.207 482.25 213.207 490.25C209.207 498.25 201.707 512.75 201.707 528.75C201.707 544.75 209.707 554.75 223.207 578.75C236.707 602.75 239.707 626.25 233.707 649.25Z" fill="#A86694" style="fill:#A86694;fill:color(display-p3 0.6588 0.4000 0.5804);fill-opacity:1;"/>
<path d="M176.5 613.75C168 605.25 153.5 603.75 134 603.75C126 603.644 95.5 606.75 82.5 603.75C69.5 600.75 58.5 595.75 58.5 577.25C58.5 558.788 66.4669 537.339 72.9596 519.859L73 519.75C79.5 502.25 75 486.75 73 478.75C71 470.75 69 455.25 71 449.75C73 444.25 83.5 443.75 95 447.25C106.5 450.75 132 465.75 139.5 472.25C147 478.75 165.5 482.75 174.5 478.75C183.5 474.75 187.5 461.75 189.5 453.75C191.5 445.75 196 435.25 199 435.25C202 435.25 204 441.25 205 445.25C206 449.25 206.5 466.25 203 474.25C199.5 482.25 189.5 501.75 189.5 521.75C189.5 541.75 196.5 553.25 202 563.75C207.5 574.25 214.5 587.75 219 604.75C223.5 621.75 220 632.25 217 635.25C214 638.25 208.5 641.25 202 637.75C195.5 634.25 185 622.25 176.5 613.75Z" fill="white" style="fill:white;fill-opacity:1;"/>
<path d="M101 135.75H130L133.952 473.703C133.979 475.93 132.18 477.75 129.953 477.75H101.047C98.8195 477.75 97.0211 475.93 97.0472 473.703L101 135.75Z" fill="#F7CF8F" style="fill:#F7CF8F;fill:color(display-p3 0.9686 0.8118 0.5608);fill-opacity:1;"/>
<path d="M84 611.75C84 609.541 85.7909 607.75 88 607.75H144C146.209 607.75 148 609.541 148 611.75V619.75C148 621.959 146.209 623.75 144 623.75H88C85.7909 623.75 84 621.959 84 619.75V611.75Z" fill="#743E59" style="fill:#743E59;fill:color(display-p3 0.4549 0.2431 0.3490);fill-opacity:1;"/>
<path d="M90 572.75C90 568.332 93.5817 564.75 98 564.75H138C142.418 564.75 146 568.332 146 572.75C146 577.168 142.418 580.75 138 580.75H98C93.5817 580.75 90 577.168 90 572.75Z" fill="#743E59" style="fill:#743E59;fill:color(display-p3 0.4549 0.2431 0.3490);fill-opacity:1;"/>
<path d="M90 532.75C90 528.332 93.5817 524.75 98 524.75H138C142.418 524.75 146 528.332 146 532.75C146 537.168 142.418 540.75 138 540.75H98C93.5817 540.75 90 537.168 90 532.75Z" fill="#743E59" style="fill:#743E59;fill:color(display-p3 0.4549 0.2431 0.3490);fill-opacity:1;"/>
<path d="M90 492.75C90 488.332 93.5817 484.75 98 484.75H138C142.418 484.75 146 488.332 146 492.75C146 497.168 142.418 500.75 138 500.75H98C93.5817 500.75 90 497.168 90 492.75Z" fill="#743E59" style="fill:#743E59;fill:color(display-p3 0.4549 0.2431 0.3490);fill-opacity:1;"/>
<path d="M176 562.75C176 567.721 171.971 571.75 167 571.75C162.029 571.75 158 567.721 158 562.75C158 557.779 162.029 553.75 167 553.75C171.971 553.75 176 557.779 176 562.75Z" fill="#743E59" style="fill:#743E59;fill:color(display-p3 0.4549 0.2431 0.3490);fill-opacity:1;"/>
<path d="M197 583.75C197 588.721 192.971 592.75 188 592.75C183.029 592.75 179 588.721 179 583.75C179 578.779 183.029 574.75 188 574.75C192.971 574.75 197 578.779 197 583.75Z" fill="#743E59" style="fill:#743E59;fill:color(display-p3 0.4549 0.2431 0.3490);fill-opacity:1;"/>
<path d="M210 609.75C210 614.721 205.971 618.75 201 618.75C196.029 618.75 192 614.721 192 609.75C192 604.779 196.029 600.75 201 600.75C205.971 600.75 210 604.779 210 609.75Z" fill="#743E59" style="fill:#743E59;fill:color(display-p3 0.4549 0.2431 0.3490);fill-opacity:1;"/>
<path d="M101 135.75H130C130 126.25 132 121.25 135 115.25C138 109.25 146 100.75 149.5 97.75C153 94.75 154.5 92.25 154 89.25C153.5 86.25 149 39.25 147.5 23.75C146 8.25 143.5 6.75 140.5 4.25C137.5 1.75 131 0.25 124.5 0.25C118 0.25 116.5 7.75 116 9.75C115.5 11.75 91 108.75 90.5 111.75C90 114.75 91.5 115.75 92.5 116.75L98 122.25C99.5 123.75 101 126.75 101 128.75V135.75Z" fill="#A96496" style="fill:#A96496;fill:color(display-p3 0.6627 0.3922 0.5882);fill-opacity:1;"/>
<path d="M95 102.75C95 106.616 91.866 109.75 88 109.75C84.134 109.75 81 106.616 81 102.75C81 98.884 84.134 95.75 88 95.75C91.866 95.75 95 98.884 95 102.75Z" fill="#783E52" style="fill:#783E52;fill:color(display-p3 0.4706 0.2431 0.3216);fill-opacity:1;"/>
<path d="M98 85.75C98 89.616 94.866 92.75 91 92.75C87.134 92.75 84 89.616 84 85.75C84 81.884 87.134 78.75 91 78.75C94.866 78.75 98 81.884 98 85.75Z" fill="#783E52" style="fill:#783E52;fill:color(display-p3 0.4706 0.2431 0.3216);fill-opacity:1;"/>
<path d="M103 69.75C103 73.616 99.866 76.75 96 76.75C92.134 76.75 89 73.616 89 69.75C89 65.884 92.134 62.75 96 62.75C99.866 62.75 103 65.884 103 69.75Z" fill="#783E52" style="fill:#783E52;fill:color(display-p3 0.4706 0.2431 0.3216);fill-opacity:1;"/>
<path d="M107 52.75C107 56.616 103.866 59.75 100 59.75C96.134 59.75 93 56.616 93 52.75C93 48.884 96.134 45.75 100 45.75C103.866 45.75 107 48.884 107 52.75Z" fill="#783E52" style="fill:#783E52;fill:color(display-p3 0.4706 0.2431 0.3216);fill-opacity:1;"/>
<path d="M112 34.75C112 38.616 108.866 41.75 105 41.75C101.134 41.75 98 38.616 98 34.75C98 30.884 101.134 27.75 105 27.75C108.866 27.75 112 30.884 112 34.75Z" fill="#783E52" style="fill:#783E52;fill:color(display-p3 0.4706 0.2431 0.3216);fill-opacity:1;"/>
<path d="M117 17.75C117 21.616 113.866 24.75 110 24.75C106.134 24.75 103 21.616 103 17.75C103 13.884 106.134 10.75 110 10.75C113.866 10.75 117 13.884 117 17.75Z" fill="#783E52" style="fill:#783E52;fill:color(display-p3 0.4706 0.2431 0.3216);fill-opacity:1;"/>
<path d="M107 107.75C107 109.959 105.209 111.75 103 111.75C100.791 111.75 99 109.959 99 107.75C99 105.541 100.791 103.75 103 103.75C105.209 103.75 107 105.541 107 107.75Z" fill="#783E52" style="fill:#783E52;fill:color(display-p3 0.4706 0.2431 0.3216);fill-opacity:1;"/>
<path d="M112 90.75C112 92.9591 110.209 94.75 108 94.75C105.791 94.75 104 92.9591 104 90.75C104 88.5409 105.791 86.75 108 86.75C110.209 86.75 112 88.5409 112 90.75Z" fill="#783E52" style="fill:#783E52;fill:color(display-p3 0.4706 0.2431 0.3216);fill-opacity:1;"/>
<path d="M117 73.75C117 75.9591 115.209 77.75 113 77.75C110.791 77.75 109 75.9591 109 73.75C109 71.5409 110.791 69.75 113 69.75C115.209 69.75 117 71.5409 117 73.75Z" fill="#783E52" style="fill:#783E52;fill:color(display-p3 0.4706 0.2431 0.3216);fill-opacity:1;"/>
<path d="M122 55.75C122 57.9591 120.209 59.75 118 59.75C115.791 59.75 114 57.9591 114 55.75C114 53.5409 115.791 51.75 118 51.75C120.209 51.75 122 53.5409 122 55.75Z" fill="#783E52" style="fill:#783E52;fill:color(display-p3 0.4706 0.2431 0.3216);fill-opacity:1;"/>
<path d="M127 39.75C127 41.9591 125.209 43.75 123 43.75C120.791 43.75 119 41.9591 119 39.75C119 37.5409 120.791 35.75 123 35.75C125.209 35.75 127 37.5409 127 39.75Z" fill="#783E52" style="fill:#783E52;fill:color(display-p3 0.4706 0.2431 0.3216);fill-opacity:1;"/>
<path d="M132 22.75C132 24.9591 130.209 26.75 128 26.75C125.791 26.75 124 24.9591 124 22.75C124 20.5409 125.791 18.75 128 18.75C130.209 18.75 132 20.5409 132 22.75Z" fill="#783E52" style="fill:#783E52;fill:color(display-p3 0.4706 0.2431 0.3216);fill-opacity:1;"/>
<path fill-rule="evenodd" clip-rule="evenodd" d="M103 113.05C103.386 113.05 103.7 113.363 103.7 113.75V615.75C103.7 616.137 103.386 616.45 103 616.45C102.613 616.45 102.3 616.137 102.3 615.75V113.75C102.3 113.363 102.613 113.05 103 113.05Z" fill="black" style="fill:black;fill-opacity:1;"/>
<path fill-rule="evenodd" clip-rule="evenodd" d="M108 96.55C108.386 96.55 108.7 96.8634 108.7 97.25V615.75C108.7 616.137 108.386 616.45 108 616.45C107.613 616.45 107.3 616.137 107.3 615.75V97.25C107.3 96.8634 107.613 96.55 108 96.55Z" fill="black" style="fill:black;fill-opacity:1;"/>
<path fill-rule="evenodd" clip-rule="evenodd" d="M113 79.55C113.386 79.55 113.7 79.8634 113.7 80.25V615.75C113.7 616.137 113.386 616.45 113 616.45C112.613 616.45 112.3 616.137 112.3 615.75V80.25C112.3 79.8634 112.613 79.55 113 79.55Z" fill="black" style="fill:black;fill-opacity:1;"/>
<path fill-rule="evenodd" clip-rule="evenodd" d="M118 61.05C118.386 61.05 118.7 61.3634 118.7 61.75V615.75C118.7 616.137 118.386 616.45 118 616.45C117.613 616.45 117.3 616.137 117.3 615.75V61.75C117.3 61.3634 117.613 61.05 118 61.05Z" fill="black" style="fill:black;fill-opacity:1;"/>
<path fill-rule="evenodd" clip-rule="evenodd" d="M123 45.05C123.386 45.05 123.7 45.3635 123.7 45.75V615.75C123.7 616.137 123.386 616.45 123 616.45C122.613 616.45 122.3 616.137 122.3 615.75V45.75C122.3 45.3635 122.613 45.05 123 45.05Z" fill="black" style="fill:black;fill-opacity:1;"/>
<path fill-rule="evenodd" clip-rule="evenodd" d="M128 27.55C128.386 27.55 128.7 27.8634 128.7 28.25V615.746C128.7 615.749 128.7 615.75 128 615.75C127.3 615.75 127.3 615.749 127.3 615.746V28.25C127.3 27.8634 127.613 27.55 128 27.55ZM128 616.45C127.613 616.45 127.3 616.137 127.3 615.75H128H128.7C128.7 616.137 128.386 616.45 128 616.45Z" fill="black" style="fill:black;fill-opacity:1;"/>
</svg>
