<svg width="244" height="733" viewBox="0 0 244 733" fill="none" xmlns="http://www.w3.org/2000/svg">
<path d="M243.654 634.5C243.654 670 215.654 733 121.654 733C16.6538 733 0.653809 658 0.653809 628C0.653809 598 13.6538 580.5 24.6538 568C35.6538 555.5 55.1538 536 55.1538 519C55.1538 502 42.6538 490 37.6538 476.5C32.6538 463 37.6538 448 42.6538 439.5C47.6538 431 65.6538 412.5 100.654 412.5C135.654 412.5 142.154 417.5 142.154 435.5C142.154 453.5 158.154 465.5 172.154 465.5C186.154 465.5 193.154 453 194.654 450.5C196.154 448 199.654 445 201.654 445C203.654 445 206.154 446.5 207.654 449.5C209.154 452.5 211.654 465.5 206.154 478.5C200.654 491.5 189.654 508.5 189.654 523.5C189.654 538.5 216.654 563.5 221.654 569.5C226.654 575.5 243.654 599 243.654 634.5Z" fill="#262626" style="fill:#262626;fill:color(display-p3 0.1490 0.1490 0.1490);fill-opacity:1;"/>
<path d="M146.654 584L142.654 457C151.654 466 156.654 468 158.654 469.5C160.654 471 164.154 472.5 165.654 477C167.154 481.5 204.154 575 204.154 578.5C204.154 582 203.654 585 198.654 588.5C193.654 592 179.654 588 172.154 586.5C166.154 585.3 152.654 584 146.654 584Z" fill="#EFE0BF" style="fill:#EFE0BF;fill:color(display-p3 0.9373 0.8784 0.7490);fill-opacity:1;"/>
<path d="M87.6538 557C87.6538 554.791 89.4447 553 91.6538 553H151.654C153.863 553 155.654 554.791 155.654 557V581C155.654 583.209 153.863 585 151.654 585H91.6538C89.4447 585 87.6538 583.209 87.6538 581V557Z" fill="#FBF8F0" style="fill:#FBF8F0;fill:color(display-p3 0.9843 0.9725 0.9412);fill-opacity:1;"/>
<path d="M85.6538 628C85.6538 625.239 87.8924 623 90.6538 623H154.654C157.415 623 159.654 625.239 159.654 628C159.654 630.761 157.415 633 154.654 633H90.6538C87.8924 633 85.6538 630.761 85.6538 628Z" fill="#FBF8F0" style="fill:#FBF8F0;fill:color(display-p3 0.9843 0.9725 0.9412);fill-opacity:1;"/>
<path d="M91.676 609.765C91.2472 608.164 92.197 606.519 93.7974 606.09L145.957 592.114C147.558 591.685 149.203 592.635 149.632 594.235C150.06 595.836 149.111 597.481 147.51 597.91L95.3503 611.886C93.7499 612.315 92.1049 611.365 91.676 609.765Z" fill="#FBF8F0" style="fill:#FBF8F0;fill:color(display-p3 0.9843 0.9725 0.9412);fill-opacity:1;"/>
<path d="M87.6538 479C87.6538 476.791 89.4447 475 91.6538 475H151.654C153.863 475 155.654 476.791 155.654 479V503C155.654 505.209 153.863 507 151.654 507H91.6538C89.4447 507 87.6538 505.209 87.6538 503V479Z" fill="#FBF8F0" style="fill:#FBF8F0;fill:color(display-p3 0.9843 0.9725 0.9412);fill-opacity:1;"/>
<path d="M95.6538 485C95.6538 482.791 97.4447 481 99.6538 481H143.654C145.863 481 147.654 482.791 147.654 485V497C147.654 499.209 145.863 501 143.654 501H99.6538C97.4447 501 95.6538 499.209 95.6538 497V485Z" fill="#EFE0BF" style="fill:#EFE0BF;fill:color(display-p3 0.9373 0.8784 0.7490);fill-opacity:1;"/>
<path d="M95.6538 563C95.6538 560.791 97.4447 559 99.6538 559H143.654C145.863 559 147.654 560.791 147.654 563V575C147.654 577.209 145.863 579 143.654 579H99.6538C97.4447 579 95.6538 577.209 95.6538 575V563Z" fill="#EFE0BF" style="fill:#EFE0BF;fill:color(display-p3 0.9373 0.8784 0.7490);fill-opacity:1;"/>
<path d="M77.6538 458C77.6538 464.627 72.2812 470 65.6538 470C59.0264 470 53.6538 464.627 53.6538 458C53.6538 451.373 59.0264 446 65.6538 446C72.2812 446 77.6538 451.373 77.6538 458Z" fill="#FBF8F0" style="fill:#FBF8F0;fill:color(display-p3 0.9843 0.9725 0.9412);fill-opacity:1;"/>
<path d="M220.654 615.5C220.654 620.747 216.401 625 211.154 625C205.907 625 201.654 620.747 201.654 615.5C201.654 610.253 205.907 606 211.154 606C216.401 606 220.654 610.253 220.654 615.5Z" fill="#FBF8F0" style="fill:#FBF8F0;fill:color(display-p3 0.9843 0.9725 0.9412);fill-opacity:1;"/>
<path d="M217.654 657.5C217.654 662.747 213.401 667 208.154 667C202.907 667 198.654 662.747 198.654 657.5C198.654 652.253 202.907 648 208.154 648C213.401 648 217.654 652.253 217.654 657.5Z" fill="#FBF8F0" style="fill:#FBF8F0;fill:color(display-p3 0.9843 0.9725 0.9412);fill-opacity:1;"/>
<path d="M185.654 677.5C185.654 682.747 181.401 687 176.154 687C170.907 687 166.654 682.747 166.654 677.5C166.654 672.253 170.907 668 176.154 668C181.401 668 185.654 672.253 185.654 677.5Z" fill="#FBF8F0" style="fill:#FBF8F0;fill:color(display-p3 0.9843 0.9725 0.9412);fill-opacity:1;"/>
<path d="M185.654 634.5C185.654 639.747 181.401 644 176.154 644C170.907 644 166.654 639.747 166.654 634.5C166.654 629.253 170.907 625 176.154 625C181.401 625 185.654 629.253 185.654 634.5Z" fill="#FBF8F0" style="fill:#FBF8F0;fill:color(display-p3 0.9843 0.9725 0.9412);fill-opacity:1;"/>
<path d="M105.654 123H138.654L143.654 475H99.6538L105.654 123Z" fill="#93693C" style="fill:#93693C;fill:color(display-p3 0.5765 0.4118 0.2353);fill-opacity:1;"/>
<path fill-rule="evenodd" clip-rule="evenodd" d="M108.16 122.3C108.546 122.303 108.857 122.617 108.854 123L104.354 628.313C104.35 628.696 104.034 629.003 103.647 629C103.261 628.997 102.95 628.683 102.954 628.3L107.454 122.987C107.457 122.604 107.773 122.297 108.16 122.3Z" fill="#D9D9D9" style="fill:#D9D9D9;fill:color(display-p3 0.8510 0.8510 0.8510);fill-opacity:1;"/>
<path fill-rule="evenodd" clip-rule="evenodd" d="M113.658 122.3C114.044 122.302 114.356 122.615 114.354 122.998L111.354 628.31C111.351 628.694 111.036 629.002 110.649 629C110.263 628.998 109.951 628.685 109.954 628.302L112.954 122.99C112.956 122.606 113.271 122.298 113.658 122.3Z" fill="#D9D9D9" style="fill:#D9D9D9;fill:color(display-p3 0.8510 0.8510 0.8510);fill-opacity:1;"/>
<path fill-rule="evenodd" clip-rule="evenodd" d="M118.655 122.3C119.042 122.301 119.354 122.612 119.354 122.995L118.354 628.308C118.353 628.691 118.039 629.001 117.652 629C117.266 628.999 116.953 628.688 116.954 628.305L117.954 122.992C117.954 122.609 118.268 122.299 118.655 122.3Z" fill="#D9D9D9" style="fill:#D9D9D9;fill:color(display-p3 0.8510 0.8510 0.8510);fill-opacity:1;"/>
<path fill-rule="evenodd" clip-rule="evenodd" d="M125.153 122.3C125.54 122.3 125.853 122.61 125.854 122.993L126.354 628.306C126.354 628.689 126.041 629 125.654 629C125.268 629 124.954 628.69 124.954 628.307L124.454 122.994C124.453 122.611 124.766 122.3 125.153 122.3Z" fill="#D9D9D9" style="fill:#D9D9D9;fill:color(display-p3 0.8510 0.8510 0.8510);fill-opacity:1;"/>
<path fill-rule="evenodd" clip-rule="evenodd" d="M130.651 122.3C131.037 122.299 131.352 122.608 131.354 122.991L133.354 628.304C133.355 628.687 133.043 628.998 132.656 629C132.27 629.001 131.955 628.692 131.954 628.309L129.954 122.996C129.952 122.613 130.264 122.302 130.651 122.3Z" fill="#D9D9D9" style="fill:#D9D9D9;fill:color(display-p3 0.8510 0.8510 0.8510);fill-opacity:1;"/>
<path fill-rule="evenodd" clip-rule="evenodd" d="M136.154 122.3C136.54 122.3 136.854 122.611 136.854 122.994C136.854 217.403 137.729 343.728 138.604 446.453C139.041 497.815 139.479 543.277 139.807 575.898C139.971 592.208 140.107 605.309 140.203 614.331C140.251 618.843 140.289 622.334 140.314 624.699L140.354 628.295C140.354 628.298 140.354 628.299 139.654 628.306C138.954 628.314 138.954 628.313 138.954 628.31L138.914 624.713C138.889 622.349 138.851 618.857 138.803 614.346C138.708 605.323 138.571 592.222 138.407 575.912C138.079 543.29 137.641 497.828 137.204 446.465C136.329 343.74 135.454 217.409 135.454 122.994C135.454 122.611 135.767 122.3 136.154 122.3ZM139.661 629C139.275 629.004 138.958 628.697 138.954 628.314L139.654 628.306L140.354 628.299C140.358 628.682 140.048 628.996 139.661 629Z" fill="#D9D9D9" style="fill:#D9D9D9;fill:color(display-p3 0.8510 0.8510 0.8510);fill-opacity:1;"/>
<path d="M105.654 123L105.612 116.475C105.612 113.296 103.647 105.533 95.7895 99.9114C97.3404 79.4998 98.6844 31.8503 91.6539 4.54553C94.5833 5.54938 101.476 6.75401 105.612 3.54168C110.781 -0.473724 115.434 -0.975649 122.154 1.53398C128.874 -0.975649 133.527 -0.473724 138.696 3.54168C142.832 6.75401 149.725 5.54938 152.654 4.54553C145.623 31.8503 146.967 79.4998 148.518 99.9114C140.661 105.533 138.696 113.296 138.696 116.475L138.654 123H105.654Z" fill="#262626" style="fill:#262626;fill:color(display-p3 0.1490 0.1490 0.1490);fill-opacity:1;"/>
<path d="M110.654 32C110.654 34.2091 108.863 36 106.654 36C104.445 36 102.654 34.2091 102.654 32C102.654 29.7909 104.445 28 106.654 28C108.863 28 110.654 29.7909 110.654 32Z" fill="#D9D9D9" style="fill:#D9D9D9;fill:color(display-p3 0.8510 0.8510 0.8510);fill-opacity:1;"/>
<path d="M141.654 32C141.654 34.2091 139.863 36 137.654 36C135.445 36 133.654 34.2091 133.654 32C133.654 29.7909 135.445 28 137.654 28C139.863 28 141.654 29.7909 141.654 32Z" fill="#D9D9D9" style="fill:#D9D9D9;fill:color(display-p3 0.8510 0.8510 0.8510);fill-opacity:1;"/>
<path d="M110.654 57C110.654 59.2091 108.863 61 106.654 61C104.445 61 102.654 59.2091 102.654 57C102.654 54.7909 104.445 53 106.654 53C108.863 53 110.654 54.7909 110.654 57Z" fill="#D9D9D9" style="fill:#D9D9D9;fill:color(display-p3 0.8510 0.8510 0.8510);fill-opacity:1;"/>
<path d="M141.654 57C141.654 59.2091 139.863 61 137.654 61C135.445 61 133.654 59.2091 133.654 57C133.654 54.7909 135.445 53 137.654 53C139.863 53 141.654 54.7909 141.654 57Z" fill="#D9D9D9" style="fill:#D9D9D9;fill:color(display-p3 0.8510 0.8510 0.8510);fill-opacity:1;"/>
<path d="M110.654 82C110.654 84.2091 108.863 86 106.654 86C104.445 86 102.654 84.2091 102.654 82C102.654 79.7909 104.445 78 106.654 78C108.863 78 110.654 79.7909 110.654 82Z" fill="#D9D9D9" style="fill:#D9D9D9;fill:color(display-p3 0.8510 0.8510 0.8510);fill-opacity:1;"/>
<path d="M141.654 82C141.654 84.2091 139.863 86 137.654 86C135.445 86 133.654 84.2091 133.654 82C133.654 79.7909 135.445 78 137.654 78C139.863 78 141.654 79.7909 141.654 82Z" fill="#D9D9D9" style="fill:#D9D9D9;fill:color(display-p3 0.8510 0.8510 0.8510);fill-opacity:1;"/>
<path d="M167.193 32C167.193 30.6689 167.193 28.8942 165.253 27.5631C163.314 26.2321 158.95 27.5631 157.011 28.4505C155.704 29.0486 153.387 30.5284 151.917 31.5104C151.566 31.7443 151.566 32.2557 151.917 32.4896C153.387 33.4716 155.704 34.9514 157.011 35.5495C158.95 36.4369 163.314 37.7679 165.253 36.4369C167.193 35.1058 167.193 33.3311 167.193 32Z" fill="#D9D9D9" style="fill:#D9D9D9;fill:color(display-p3 0.8510 0.8510 0.8510);fill-opacity:1;"/>
<path d="M77.1152 82C77.1152 83.3311 77.1152 85.1058 79.0546 86.4369C80.994 87.7679 85.3577 86.4369 87.2971 85.5495C88.6042 84.9514 90.9207 83.4716 92.3912 82.4896C92.7415 82.2557 92.7415 81.7443 92.3912 81.5104C90.9207 80.5284 88.6042 79.0486 87.2971 78.4505C85.3577 77.5631 80.994 76.2321 79.0546 77.5631C77.1152 78.8942 77.1152 80.6689 77.1152 82Z" fill="#D9D9D9" style="fill:#D9D9D9;fill:color(display-p3 0.8510 0.8510 0.8510);fill-opacity:1;"/>
<path d="M166.193 57C166.193 55.6689 166.193 53.8942 164.253 52.5631C162.314 51.2321 157.95 52.5631 156.011 53.4505C154.704 54.0486 152.387 55.5284 150.917 56.5104C150.566 56.7443 150.566 57.2557 150.917 57.4896C152.387 58.4716 154.704 59.9514 156.011 60.5495C157.95 61.4369 162.314 62.7679 164.253 61.4369C166.193 60.1058 166.193 58.3311 166.193 57Z" fill="#D9D9D9" style="fill:#D9D9D9;fill:color(display-p3 0.8510 0.8510 0.8510);fill-opacity:1;"/>
<path d="M78.1152 57C78.1152 58.3311 78.1152 60.1058 80.0546 61.4369C81.994 62.7679 86.3577 61.4369 88.2971 60.5495C89.6042 59.9514 91.9207 58.4716 93.3912 57.4896C93.7415 57.2557 93.7415 56.7443 93.3912 56.5104C91.9207 55.5284 89.6042 54.0486 88.2971 53.4505C86.3577 52.5631 81.994 51.2321 80.0546 52.5631C78.1152 53.8942 78.1152 55.6689 78.1152 57Z" fill="#D9D9D9" style="fill:#D9D9D9;fill:color(display-p3 0.8510 0.8510 0.8510);fill-opacity:1;"/>
<path d="M167.193 82C167.193 80.6689 167.193 78.8942 165.253 77.5631C163.314 76.2321 158.95 77.5631 157.011 78.4505C155.704 79.0486 153.387 80.5284 151.917 81.5104C151.566 81.7443 151.566 82.2557 151.917 82.4896C153.387 83.4716 155.704 84.9514 157.011 85.5495C158.95 86.4369 163.314 87.7679 165.253 86.4369C167.193 85.1058 167.193 83.3311 167.193 82Z" fill="#D9D9D9" style="fill:#D9D9D9;fill:color(display-p3 0.8510 0.8510 0.8510);fill-opacity:1;"/>
<path d="M77.1152 32C77.1152 33.3311 77.1152 35.1058 79.0546 36.4369C80.994 37.7679 85.3577 36.4369 87.2971 35.5495C88.6042 34.9514 90.9207 33.4716 92.3912 32.4896C92.7415 32.2557 92.7415 31.7443 92.3912 31.5104C90.9207 30.5284 88.6042 29.0486 87.2971 28.4505C85.3577 27.5631 80.994 26.2321 79.0546 27.5631C77.1152 28.8942 77.1152 30.6689 77.1152 32Z" fill="#D9D9D9" style="fill:#D9D9D9;fill:color(display-p3 0.8510 0.8510 0.8510);fill-opacity:1;"/>
</svg>
