<svg width="24" height="26" viewBox="0 0 24 26" fill="none" xmlns="http://www.w3.org/2000/svg">
<path d="M20 18.3775C18.9867 18.3775 18.08 18.7691 17.3867 19.3825L7.88 13.9659C7.94667 13.6657 8 13.3655 8 13.0522C8 12.739 7.94667 12.4388 7.88 12.1386L17.28 6.7741C18 7.42671 18.9467 7.83133 20 7.83133C22.2133 7.83133 24 6.08233 24 3.91566C24 1.749 22.2133 0 20 0C17.7867 0 16 1.749 16 3.91566C16 4.22892 16.0533 4.52912 16.12 4.82932L6.72 10.1938C6 9.54117 5.05333 9.13655 4 9.13655C1.78667 9.13655 0 10.8855 0 13.0522C0 15.2189 1.78667 16.9679 4 16.9679C5.05333 16.9679 6 16.5633 6.72 15.9106L16.2133 21.3404C16.1467 21.6145 16.1067 21.9016 16.1067 22.1888C16.1067 24.2902 17.8533 26 20 26C22.1467 26 23.8933 24.2902 23.8933 22.1888C23.8933 20.0873 22.1467 18.3775 20 18.3775Z" fill="white" fill-opacity="0.8" style="fill:white;fill-opacity:0.8;"/>
</svg>
