<svg width="244" height="693" viewBox="0 0 244 693" fill="none" xmlns="http://www.w3.org/2000/svg">
<path d="M237.154 647.25C219.154 684.25 190.154 692.25 122.154 692.25C89.6538 692.25 56.1538 692.25 39.1538 682.25C22.1538 672.25 0.653809 652.25 0.653809 617.25C0.653809 582.25 9.65381 562.75 12.1538 558.25C14.6538 553.75 35.1538 518.25 35.1538 496.75C35.1538 475.25 21.6538 451.75 17.1538 435.75C12.6538 419.75 17.6538 406.25 23.1538 398.25C28.6538 390.25 39.1538 385.25 51.1538 385.25C63.1538 385.25 71.1538 388.25 77.1538 391.75C83.1538 395.25 91.1538 401.25 94.6538 400.75C98.1538 400.25 100.654 396.75 102.654 394.75C104.654 392.75 106.654 391.25 109.154 391.25H135.654C141.654 391.25 141.654 397.75 141.654 401.25V416.75C141.654 430.75 150.654 441.75 165.154 441.75C179.654 441.75 185.654 420.75 190.154 408.25C194.654 395.75 201.654 388.25 208.154 388.25C214.654 388.25 219.154 392.25 226.154 406.25C233.154 420.25 224.654 444.25 220.654 454.75C216.654 465.25 208.154 483.75 208.154 499.25C208.154 514.75 221.154 537.25 226.154 548.25C231.154 559.25 255.154 610.25 237.154 647.25Z" fill="#6E8FA6" style="fill:#6E8FA6;fill:color(display-p3 0.4314 0.5608 0.6510);fill-opacity:1;"/>
<path d="M201.73 538.25H65.1537C60.1537 538.25 58.1537 520.25 58.1537 511.75C58.1537 503.25 57.1537 472.25 66.1537 452.75C75.1537 433.25 88.6537 411.25 103.654 411.25C118.654 411.25 124.654 413.75 128.154 424.25C131.654 434.75 143.654 453.75 163.154 453.75C182.654 453.75 189.654 438.25 195.654 429.75C201.654 421.25 203.654 401.75 208.154 401.75C212.654 401.75 216.154 412.25 216.154 417.75C216.154 423.25 215.654 432.75 210.654 444.75C205.654 456.75 195.654 483.75 195.654 500.75C195.654 511.133 200.899 523.536 205.383 531.864C206.893 534.667 204.915 538.25 201.73 538.25Z" fill="#FBF1DA" style="fill:#FBF1DA;fill:color(display-p3 0.9843 0.9451 0.8549);fill-opacity:1;"/>
<path d="M173.154 539.75C173.154 533.123 178.526 527.75 185.154 527.75C191.781 527.75 197.154 533.123 197.154 539.75V635.75C197.154 642.377 191.781 647.75 185.154 647.75C178.526 647.75 173.154 642.377 173.154 635.75V539.75Z" fill="#D7DAE8" style="fill:#D7DAE8;fill:color(display-p3 0.8431 0.8549 0.9098);fill-opacity:1;"/>
<path d="M87.1538 533.75C87.1538 530.436 89.8401 527.75 93.1538 527.75H149.154C152.468 527.75 155.154 530.436 155.154 533.75V597.75C155.154 601.064 152.468 603.75 149.154 603.75H93.1538C89.8401 603.75 87.1538 601.064 87.1538 597.75V533.75Z" fill="#D7DAE8" style="fill:#D7DAE8;fill:color(display-p3 0.8431 0.8549 0.9098);fill-opacity:1;"/>
<path d="M92.176 544.511C93.1766 540.777 97.015 538.561 100.749 539.562L145.182 551.467C148.916 552.468 151.132 556.306 150.132 560.041C149.131 563.775 145.293 565.991 141.558 564.99L97.1258 553.085C93.3915 552.084 91.1754 548.246 92.176 544.511Z" fill="#A9AEB5" style="fill:#A9AEB5;fill:color(display-p3 0.6622 0.6826 0.7095);fill-opacity:1;"/>
<path d="M89.1538 464.75C89.1538 460.884 92.2878 457.75 96.1538 457.75H146.154C150.02 457.75 153.154 460.884 153.154 464.75C153.154 468.616 150.02 471.75 146.154 471.75H96.1538C92.2878 471.75 89.1538 468.616 89.1538 464.75Z" fill="#D7DAE8" style="fill:#D7DAE8;fill:color(display-p3 0.8431 0.8549 0.9098);fill-opacity:1;"/>
<path d="M107.154 146.75H136.154L140.154 433.75H102.154L107.154 146.75Z" fill="#93693C" style="fill:#93693C;fill:color(display-p3 0.5765 0.4118 0.2353);fill-opacity:1;"/>
<path fill-rule="evenodd" clip-rule="evenodd" d="M109.163 148.05C109.55 148.055 109.859 148.373 109.854 148.76L103.854 587.76C103.848 588.146 103.531 588.455 103.144 588.45C102.757 588.445 102.448 588.127 102.454 587.741L108.454 148.74C108.459 148.354 108.777 148.045 109.163 148.05Z" fill="black" style="fill:black;fill-opacity:1;"/>
<path fill-rule="evenodd" clip-rule="evenodd" d="M114.66 148.05C115.047 148.054 115.357 148.37 115.354 148.757L111.054 587.757C111.05 588.143 110.733 588.454 110.347 588.45C109.96 588.446 109.65 588.13 109.654 587.743L113.954 148.743C113.957 148.357 114.274 148.046 114.66 148.05Z" fill="black" style="fill:black;fill-opacity:1;"/>
<path fill-rule="evenodd" clip-rule="evenodd" d="M119.657 148.05C120.044 148.052 120.355 148.367 120.354 148.753L118.254 587.753C118.252 588.14 117.937 588.452 117.55 588.45C117.164 588.448 116.852 588.133 116.854 587.747L118.954 148.747C118.955 148.36 119.27 148.048 119.657 148.05Z" fill="black" style="fill:black;fill-opacity:1;"/>
<path fill-rule="evenodd" clip-rule="evenodd" d="M124.754 148.05C125.14 148.05 125.454 148.363 125.454 148.75V587.75C125.454 588.137 125.14 588.45 124.754 588.45C124.367 588.45 124.054 588.137 124.054 587.75V148.75C124.054 148.363 124.367 148.05 124.754 148.05Z" fill="black" style="fill:black;fill-opacity:1;"/>
<path fill-rule="evenodd" clip-rule="evenodd" d="M129.65 148.05C130.037 148.048 130.352 148.36 130.354 148.746L132.654 587.746C132.656 588.133 132.344 588.448 131.957 588.45C131.571 588.452 131.256 588.14 131.254 587.754L128.954 148.754C128.952 148.367 129.263 148.052 129.65 148.05Z" fill="black" style="fill:black;fill-opacity:1;"/>
<path fill-rule="evenodd" clip-rule="evenodd" d="M134.654 148.05C135.04 148.05 135.354 148.363 135.354 148.75C135.354 234.465 136.479 344.212 137.604 432.531C138.166 476.69 138.729 515.492 139.15 543.254C139.361 557.135 139.537 568.257 139.66 575.907C139.722 579.733 139.77 582.69 139.803 584.692L139.853 587.735C139.853 587.737 139.854 587.738 139.154 587.75C138.454 587.762 138.454 587.761 138.454 587.759L138.403 584.715C138.37 582.713 138.322 579.755 138.26 575.93C138.137 568.279 137.962 557.157 137.751 543.276C137.329 515.513 136.766 476.71 136.204 432.549C135.079 344.229 133.954 234.475 133.954 148.75C133.954 148.363 134.267 148.05 134.654 148.05ZM139.165 588.45C138.779 588.456 138.46 588.148 138.454 587.762L139.154 587.75L139.854 587.738C139.86 588.125 139.552 588.443 139.165 588.45Z" fill="black" style="fill:black;fill-opacity:1;"/>
<path d="M107.154 141.75V146.75H136.154C136.154 136.75 138.154 132.75 145.154 125.25C152.154 117.75 159.654 115.25 161.154 112.75C162.654 110.25 162.654 107.25 161.154 101.25C159.654 95.25 148.654 50.25 150.154 46.75C151.654 43.25 154.654 44.25 157.154 42.75C159.654 41.25 169.654 35.75 169.654 23.25C169.654 10.75 161.154 0.75 147.154 0.75C133.154 0.75 127.654 9.75 125.154 16.75C122.654 23.75 92.6536 114.75 92.6536 119.25C92.6536 123.75 101.154 129.75 104.154 132.75C106.554 135.15 107.154 139.75 107.154 141.75Z" fill="#F8D2AD" style="fill:#F8D2AD;fill:color(display-p3 0.9725 0.8235 0.6784);fill-opacity:1;"/>
<path d="M110.154 113.75C110.154 115.959 108.363 117.75 106.154 117.75C103.944 117.75 102.154 115.959 102.154 113.75C102.154 111.541 103.944 109.75 106.154 109.75C108.363 109.75 110.154 111.541 110.154 113.75Z" fill="#595959" style="fill:#595959;fill:color(display-p3 0.3509 0.3509 0.3509);fill-opacity:1;"/>
<path d="M116.154 95.75C116.154 97.9591 114.363 99.75 112.154 99.75C109.944 99.75 108.154 97.9591 108.154 95.75C108.154 93.5409 109.944 91.75 112.154 91.75C114.363 91.75 116.154 93.5409 116.154 95.75Z" fill="#595959" style="fill:#595959;fill:color(display-p3 0.3509 0.3509 0.3509);fill-opacity:1;"/>
<path d="M122.154 77.75C122.154 79.9591 120.363 81.75 118.154 81.75C115.944 81.75 114.154 79.9591 114.154 77.75C114.154 75.5409 115.944 73.75 118.154 73.75C120.363 73.75 122.154 75.5409 122.154 77.75Z" fill="#595959" style="fill:#595959;fill:color(display-p3 0.3509 0.3509 0.3509);fill-opacity:1;"/>
<path d="M128.154 59.75C128.154 61.9591 126.363 63.75 124.154 63.75C121.944 63.75 120.154 61.9591 120.154 59.75C120.154 57.5409 121.944 55.75 124.154 55.75C126.363 55.75 128.154 57.5409 128.154 59.75Z" fill="#595959" style="fill:#595959;fill:color(display-p3 0.3509 0.3509 0.3509);fill-opacity:1;"/>
<path d="M134.154 41.75C134.154 43.9591 132.363 45.75 130.154 45.75C127.944 45.75 126.154 43.9591 126.154 41.75C126.154 39.5409 127.944 37.75 130.154 37.75C132.363 37.75 134.154 39.5409 134.154 41.75Z" fill="#595959" style="fill:#595959;fill:color(display-p3 0.3509 0.3509 0.3509);fill-opacity:1;"/>
<path d="M140.154 23.75C140.154 25.9591 138.363 27.75 136.154 27.75C133.944 27.75 132.154 25.9591 132.154 23.75C132.154 21.5409 133.944 19.75 136.154 19.75C138.363 19.75 140.154 21.5409 140.154 23.75Z" fill="#595959" style="fill:#595959;fill:color(display-p3 0.3509 0.3509 0.3509);fill-opacity:1;"/>
<path d="M80.4209 112.497C79.5344 112.259 78.9058 111.502 78.8889 110.652L78.7826 105.309C78.776 104.981 78.8619 104.66 79.0315 104.38L81.7951 99.8057C82.235 99.0776 83.1579 98.7363 84.0444 98.9738L87.8863 100.003C88.7728 100.241 89.4013 100.998 89.4183 101.848L89.5246 107.191C89.5311 107.519 89.4453 107.84 89.2756 108.12L86.5121 112.694C86.0722 113.422 85.1493 113.764 84.2628 113.526L80.4209 112.497Z" fill="#595959" style="fill:#595959;fill:color(display-p3 0.3509 0.3509 0.3509);fill-opacity:1;"/>
<path d="M86.5452 94.1817C85.6587 93.9442 85.0301 93.1872 85.0132 92.3367L84.9069 86.9938C84.9004 86.6657 84.9862 86.3454 85.1559 86.0646L87.9194 81.4907C88.3593 80.7626 89.2822 80.4212 90.1687 80.6588L94.0106 81.6882C94.8971 81.9257 95.5257 82.6828 95.5426 83.5333L95.6489 88.8762C95.6554 89.2042 95.5696 89.5246 95.3999 89.8054L92.6364 94.3793C92.1965 95.1074 91.2736 95.4487 90.3871 95.2112L86.5452 94.1817Z" fill="#595959" style="fill:#595959;fill:color(display-p3 0.3509 0.3509 0.3509);fill-opacity:1;"/>
<path d="M92.6696 75.8667C91.7831 75.6291 91.1545 74.8721 91.1376 74.0216L91.0312 68.6787C91.0247 68.3507 91.1105 68.0303 91.2802 67.7495L94.0437 63.1756C94.4836 62.4475 95.4065 62.1062 96.293 62.3437L100.135 63.3731C101.021 63.6107 101.65 64.3677 101.667 65.2182L101.773 70.5611C101.78 70.8891 101.694 71.2095 101.524 71.4903L98.7607 76.0642C98.3208 76.7923 97.3979 77.1336 96.5115 76.8961L92.6696 75.8667Z" fill="#595959" style="fill:#595959;fill:color(display-p3 0.3509 0.3509 0.3509);fill-opacity:1;"/>
<path d="M98.7939 57.5516C97.9074 57.3141 97.2788 56.557 97.2619 55.7065L97.1556 50.3636C97.149 50.0356 97.2349 49.7153 97.4045 49.4345L100.168 44.8605C100.608 44.1324 101.531 43.7911 102.417 44.0286L106.259 45.0581C107.146 45.2956 107.774 46.0527 107.791 46.9032L107.898 52.2461C107.904 52.5741 107.818 52.8944 107.649 53.1752L104.885 57.7492C104.445 58.4773 103.522 58.8186 102.636 58.581L98.7939 57.5516Z" fill="#595959" style="fill:#595959;fill:color(display-p3 0.3509 0.3509 0.3509);fill-opacity:1;"/>
<path d="M104.918 39.2365C104.032 38.999 103.403 38.242 103.386 37.3915L103.28 32.0486C103.273 31.7206 103.359 31.4002 103.529 31.1194L106.292 26.5455C106.732 25.8174 107.655 25.476 108.542 25.7136L112.384 26.743C113.27 26.9806 113.899 27.7376 113.916 28.5881L114.022 33.931C114.028 34.259 113.943 34.5794 113.773 34.8602L111.009 39.4341C110.569 40.1622 109.647 40.5035 108.76 40.266L104.918 39.2365Z" fill="#595959" style="fill:#595959;fill:color(display-p3 0.3509 0.3509 0.3509);fill-opacity:1;"/>
<path d="M111.043 20.9215C110.156 20.6839 109.527 19.9269 109.511 19.0764L109.404 13.7335C109.398 13.4055 109.484 13.0851 109.653 12.8043L112.417 8.2304C112.857 7.50231 113.78 7.16099 114.666 7.39852L118.508 8.42796C119.394 8.66549 120.023 9.42253 120.04 10.273L120.146 15.6159C120.153 15.9439 120.067 16.2643 119.897 16.5451L117.134 21.119C116.694 21.8471 115.771 22.1885 114.884 21.9509L111.043 20.9215Z" fill="#595959" style="fill:#595959;fill:color(display-p3 0.3509 0.3509 0.3509);fill-opacity:1;"/>
</svg>
