<svg width="22" height="27" viewBox="0 0 22 27" fill="none" xmlns="http://www.w3.org/2000/svg">
<path d="M10.9476 4.60519V0.701698C10.9476 0.0721019 10.202 -0.2357 9.774 0.212012L4.52713 5.51461C4.25098 5.79443 4.25098 6.22815 4.52713 6.50797L9.7602 11.8106C10.202 12.2443 10.9476 11.9365 10.9476 11.3069V7.40339C16.0979 7.40339 20.1711 12.1883 19.0389 17.6028C18.3899 20.7788 15.8493 23.3392 12.7288 23.9967C7.79952 25.0461 3.40872 21.6183 2.74596 16.9872C2.64931 16.3157 2.06939 15.798 1.39282 15.798C0.564368 15.798 -0.0983941 16.5395 0.0120663 17.379C0.868134 23.521 6.63969 28.0681 13.1707 26.781C17.4786 25.9275 20.9443 22.4158 21.7866 18.0506C23.1535 10.8732 17.7686 4.60519 10.9476 4.60519Z" fill="white" fill-opacity="0.8" style="fill:white;fill-opacity:0.8;"/>
</svg>
